<svg width="756" height="24" viewBox="0 0 756 24" fill="none" xmlns="http://www.w3.org/2000/svg">
<circle cx="5" cy="12" r="5" fill="#DEDDED"/>
<circle cx="28" cy="12" r="5" fill="#DEDDED"/>
<circle cx="51" cy="12" r="5" fill="#DEDDED"/>
<circle cx="74" cy="12" r="5" fill="#DEDDED"/>
<circle cx="97" cy="12" r="5" fill="#DEDDED"/>
<circle cx="120" cy="12" r="5" fill="#DEDDED"/>
<circle cx="143" cy="12" r="5" fill="#DEDDED"/>
<circle cx="166" cy="12" r="5" fill="#DEDDED"/>
<circle cx="189" cy="12" r="5" fill="#DEDDED"/>
<circle cx="212" cy="12" r="5" fill="#DEDDED"/>
<circle cx="235" cy="12" r="5" fill="#DEDDED"/>
<circle cx="258" cy="12" r="5" fill="#DEDDED"/>
<circle cx="281" cy="12" r="5" fill="#DEDDED"/>
<circle cx="304" cy="12" r="5" fill="#DEDDED"/>
<circle cx="327" cy="12" r="5" fill="#DEDDED"/>
<circle cx="350" cy="12" r="5" fill="#DEDDED"/>
<circle cx="373" cy="12" r="5" fill="#DEDDED"/>
<circle cx="396" cy="12" r="5" fill="#DEDDED"/>
<circle cx="419" cy="12" r="5" fill="#DEDDED"/>
<circle cx="442" cy="12" r="5" fill="#DEDDED"/>
<circle cx="465" cy="12" r="5" fill="#DEDDED"/>
<circle cx="488" cy="12" r="5" fill="#DEDDED"/>
<circle cx="511" cy="12" r="5" fill="#DEDDED"/>
<circle cx="534" cy="12" r="5" fill="#DEDDED"/>
<circle cx="557" cy="12" r="5" fill="#DEDDED"/>
<circle cx="580" cy="12" r="5" fill="#DEDDED"/>
<circle cx="603" cy="12" r="5" fill="#DEDDED"/>
<circle cx="626" cy="12" r="5" fill="#DEDDED"/>
<circle cx="649" cy="12" r="5" fill="#DEDDED"/>
<circle cx="672" cy="12" r="5" fill="#DEDDED"/>
<circle cx="695" cy="12" r="5" fill="#DEDDED"/>
<circle cx="718" cy="12" r="5" fill="#DEDDED"/>
<path d="M741 18V5L753 3V16" stroke="#DEDDED" stroke-width="2" stroke-linecap="round" stroke-linejoin="round"/>
<path d="M738 21C739.657 21 741 19.6569 741 18C741 16.3431 739.657 15 738 15C736.343 15 735 16.3431 735 18C735 19.6569 736.343 21 738 21Z" stroke="#DEDDED" stroke-width="2" stroke-linecap="round" stroke-linejoin="round"/>
<path d="M750 19C751.657 19 753 17.6569 753 16C753 14.3431 751.657 13 750 13C748.343 13 747 14.3431 747 16C747 17.6569 748.343 19 750 19Z" stroke="#DEDDED" stroke-width="2" stroke-linecap="round" stroke-linejoin="round"/>
</svg>
