<svg width="23" height="21" viewBox="0 0 23 21" fill="none" xmlns="http://www.w3.org/2000/svg">
<g id="server-02">
<path id="Icon" d="M19.845 4.9C19.845 6.6397 15.8961 8.05 11.025 8.05C6.1538 8.05 2.20496 6.6397 2.20496 4.9M19.845 4.9C19.845 3.1603 15.8961 1.75 11.025 1.75C6.1538 1.75 2.20496 3.1603 2.20496 4.9M19.845 4.9V14.35C19.845 16.0897 15.8961 17.5 11.025 17.5C6.1538 17.5 2.20496 16.0897 2.20496 14.35V4.9M19.845 9.625C19.845 11.3647 15.8961 12.775 11.025 12.775C6.1538 12.775 2.20496 11.3647 2.20496 9.625" stroke="black" stroke-width="2"/>
</g>
</svg>
