<svg width="22" height="22" viewBox="0 0 22 22" fill="none" xmlns="http://www.w3.org/2000/svg">
<g id="map-02">
<path id="Icon" d="M2.96007 5.19445L16.8939 18.7977M2.96007 5.19445C3.4785 4.60259 4.25282 4.22685 5.11792 4.22685H9.82831M2.96007 5.19445C2.54312 5.67047 2.29169 6.28629 2.29169 6.95888V16.9763C2.29169 18.4852 3.55703 19.7083 5.11792 19.7083H15.4808C17.0417 19.7083 18.307 18.4852 18.307 16.9763V12.8783M9.82831 12.8783L3.7048 18.7977M16.5053 5.38796V5.32976M19.7084 5.32065C19.7084 7.33998 16.5053 10.0324 16.5053 10.0324C16.5053 10.0324 13.3022 7.33998 13.3022 5.32065C13.3022 3.64779 14.7363 2.29167 16.5053 2.29167C18.2743 2.29167 19.7084 3.64779 19.7084 5.32065Z" stroke="#555E90" stroke-width="2" stroke-linecap="round" stroke-linejoin="round"/>
</g>
</svg>
